<svg version="1" xmlns="http://www.w3.org/2000/svg" width="1365.333" height="1365.333" viewBox="0 0 1024.000000 1024.000000"><path d="M483 177.1c-5.8.5-17.5 2-26 3.5-162.2 27.1-281 167.2-281 331.5 0 52.1 12.1 103.1 35.7 150.4 40.3 80.8 112.1 142.1 198.8 169.8 35.4 11.3 74.3 16.7 112 15.4 87-3 166.3-37.4 227.6-98.8 89.3-89.6 120.6-222.4 80.8-342.8-29.5-89.4-97-163.5-183.1-201.5-51.2-22.5-108.3-32-164.8-27.5zm52.5 43.9c69.1 5.9 130.9 34.1 180.3 82.4 48.5 47.4 77.9 107.1 86.4 175.6 1.7 13.6 1.7 52.4 0 66-8.4 67.7-36.5 125.5-84.1 173.1-23.3 23.2-45.9 39.8-73.6 53.9-30.5 15.6-63.5 25.6-99 30.1-5.6.7-20.4 1.3-33.5 1.3-24.6 0-35.1-.9-56-5-113.8-22-205.5-112-229.4-225.1-18.1-85.9 2.4-174 56.6-242.6 10.4-13.1 34.4-37.1 47.5-47.5 58.1-45.9 132-68.3 204.8-62.2z"/><path d="M433.5 368.4c-12.5 3.1-23.7 12.1-29.3 23.6-10.9 22.4-1.2 49.6 21.5 60.3 5.8 2.7 8.2 3.2 16.5 3.5 7.9.4 10.8 0 16.2-1.8 16.5-5.5 28.7-20.9 30.3-38.4 2.7-30.1-25.8-54.5-55.2-47.2zM613.1 368.6c-12.5 3.3-22.8 11.9-28.7 24-3 6-3.7 8.6-4.1 15.8-1.3 19.5 8.1 35.5 25.7 44 6.2 2.9 7.1 3.1 18.5 3.1s12.3-.2 18.5-3.1c17.6-8.5 27-24.5 25.7-44-.4-7.2-1.1-9.8-4.1-15.8-9.6-19.6-31-29.5-51.5-24zM373.5 534.9c-9.2 2.3-15.5 9.2-17.1 18.7-.8 5.2 3.6 26.3 8.7 41.9 19.1 58.2 59.7 97.5 115.3 111.5 31.5 8 73.2 8.1 104.6.4 63.3-15.6 106.8-63.1 122.5-133.9 3.4-15.3 3.2-23.3-.8-29.3-8.4-12.8-27.7-12.9-36.2-.2-2.3 3.4-3.5 7.1-4.9 14.5-2.3 12.6-9.2 33.7-14.1 43.5-18 35.9-45.6 56.4-87 64.7-14 2.8-51.3 2.5-65.2-.5-26.4-5.7-44.1-14.9-60.8-31.7-18.6-18.5-30.2-41.7-37-73.7-1.4-6.6-3.2-13.2-3.9-14.7-2.5-4.7-7.8-9.1-13-10.6-5.4-1.6-6.5-1.7-11.1-.6z"/></svg>